<?xml version="1.0" encoding="UTF-8" standalone="no"?>
<!-- Created with Inkscape (http://www.inkscape.org/) -->

<svg
   xmlns:dc="http://purl.org/dc/elements/1.1/"
   xmlns:cc="http://creativecommons.org/ns#"
   xmlns:rdf="http://www.w3.org/1999/02/22-rdf-syntax-ns#"
   xmlns:svg="http://www.w3.org/2000/svg"
   xmlns="http://www.w3.org/2000/svg"
   xmlns:sodipodi="http://sodipodi.sourceforge.net/DTD/sodipodi-0.dtd"
   xmlns:inkscape="http://www.inkscape.org/namespaces/inkscape"
   version="1.1"
   id="svg2"
   xml:space="preserve"
   width="1344"
   height="672"
   viewBox="0 0 1344 672"
   sodipodi:docname="1FCA1-40b05t10k-ann-pdbsGlobal.svg"
   inkscape:version="0.92.3 (2405546, 2018-03-11)"><metadata
     id="metadata8"><rdf:RDF><cc:Work
         rdf:about=""><dc:format>image/svg+xml</dc:format><dc:type
           rdf:resource="http://purl.org/dc/dcmitype/StillImage" /><dc:title /></cc:Work></rdf:RDF></metadata><defs
     id="defs6"><clipPath
       clipPathUnits="userSpaceOnUse"
       id="clipPath20"><path
         d="M 59.04,73.44 H 977.76 V 444.96 H 59.04 Z"
         id="path18"
         inkscape:connector-curvature="0" /></clipPath></defs><sodipodi:namedview
     pagecolor="#ffffff"
     bordercolor="#666666"
     borderopacity="1"
     objecttolerance="10"
     gridtolerance="10"
     guidetolerance="10"
     inkscape:pageopacity="0"
     inkscape:pageshadow="2"
     inkscape:window-width="1366"
     inkscape:window-height="732"
     id="namedview4"
     showgrid="false"
     inkscape:zoom="0.66071429"
     inkscape:cx="483.47748"
     inkscape:cy="250.86071"
     inkscape:window-x="-2"
     inkscape:window-y="-2"
     inkscape:window-maximized="1"
     inkscape:current-layer="g10" /><g
     id="g10"
     inkscape:groupmode="layer"
     inkscape:label="1FCA1-40b05t10k-pdbsGlobal"
     transform="matrix(1.3333333,0,0,-1.3333333,0,672)"><g
       id="g12" /><g
       id="g14"><g
         id="g16"
         clip-path="url(#clipPath20)"><path
           d="m 93.07,135.39 14.92,-7.15 14.92,0.79 14.93,6.36 14.92,-3.47 14.93,2.44 14.92,2.27 14.92,1.83 14.93,1.75 14.92,1.07 14.93,3.06 14.92,0.27 14.92,1.1 14.93,2.48 14.92,0.41 14.93,-4.23 14.92,15.38 14.92,18.68 14.93,21.33 14.92,8.39 14.93,38.05 14.92,-43.9 14.92,76.71 14.93,-40.35 14.92,-43.24 14.93,1.89 14.92,0.42 14.92,-4.58 14.93,-8.08 14.92,15 14.93,12.41 14.92,-30.16 14.92,1.92 14.93,-24.52 14.92,-1.83 14.93,15.79 14.92,9.77 14.92,-0.38 14.93,-8.94 14.92,15.86 14.93,-32.24 14.92,25.15 14.92,17.51 14.93,-2.37 14.92,19.16 14.93,-27.21 14.92,-16.65 14.92,-10.43 14.93,-5.26 14.92,-4.85 14.93,7.16 14.92,8.73 14.92,4.23 14.93,8.57 14.92,21.95 14.93,32.75 14.92,146.75 14.92,48.26"
           style="fill:none;stroke:#000000;stroke-width:0.75;stroke-linecap:round;stroke-linejoin:round;stroke-miterlimit:10;stroke-dasharray:none;stroke-opacity:1"
           id="path22"
           inkscape:connector-curvature="0" /></g></g><g
       id="g24"><path
   d="m 93.07,73.44 h 746.2"
   style="fill:none;stroke:#000000;stroke-width:0.75;stroke-linecap:round;stroke-linejoin:round;stroke-miterlimit:10;stroke-dasharray:none;stroke-opacity:1"
   id="path26"
   inkscape:connector-curvature="0" /><path
   d="m 93.07,73.44 v -7.2"
   style="fill:none;stroke:#000000;stroke-width:0.75;stroke-linecap:round;stroke-linejoin:round;stroke-miterlimit:10;stroke-dasharray:none;stroke-opacity:1"
   id="path28"
   inkscape:connector-curvature="0" /><path
   d="m 242.31,73.44 v -7.2"
   style="fill:none;stroke:#000000;stroke-width:0.75;stroke-linecap:round;stroke-linejoin:round;stroke-miterlimit:10;stroke-dasharray:none;stroke-opacity:1"
   id="path30"
   inkscape:connector-curvature="0" /><path
   d="m 391.55,73.44 v -7.2"
   style="fill:none;stroke:#000000;stroke-width:0.75;stroke-linecap:round;stroke-linejoin:round;stroke-miterlimit:10;stroke-dasharray:none;stroke-opacity:1"
   id="path32"
   inkscape:connector-curvature="0" /><path
   d="m 540.79,73.44 v -7.2"
   style="fill:none;stroke:#000000;stroke-width:0.75;stroke-linecap:round;stroke-linejoin:round;stroke-miterlimit:10;stroke-dasharray:none;stroke-opacity:1"
   id="path34"
   inkscape:connector-curvature="0" /><path
   d="m 690.03,73.44 v -7.2"
   style="fill:none;stroke:#000000;stroke-width:0.75;stroke-linecap:round;stroke-linejoin:round;stroke-miterlimit:10;stroke-dasharray:none;stroke-opacity:1"
   id="path36"
   inkscape:connector-curvature="0" /><path
   d="m 839.27,73.44 v -7.2"
   style="fill:none;stroke:#000000;stroke-width:0.75;stroke-linecap:round;stroke-linejoin:round;stroke-miterlimit:10;stroke-dasharray:none;stroke-opacity:1"
   id="path38"
   inkscape:connector-curvature="0" /><text
   transform="matrix(1,0,0,-1,88.06,47.52)"
   style="font-variant:normal;font-weight:normal;font-size:18px;font-family:Helvetica;-inkscape-font-specification:Helvetica;writing-mode:lr-tb;fill:#000000;fill-opacity:1;fill-rule:nonzero;stroke:none"
   id="text42"><tspan
     x="0"
     y="0"
     id="tspan40">0</tspan></text>

<text
   transform="matrix(1,0,0,-1,232.3,47.52)"
   style="font-variant:normal;font-weight:normal;font-size:18px;font-family:Helvetica;-inkscape-font-specification:Helvetica;writing-mode:lr-tb;fill:#000000;fill-opacity:1;fill-rule:nonzero;stroke:none"
   id="text46"><tspan
     x="0 10.008"
     y="0"
     sodipodi:role="line"
     id="tspan44">10</tspan></text>

<text
   transform="matrix(1,0,0,-1,381.54,47.52)"
   style="font-variant:normal;font-weight:normal;font-size:18px;font-family:Helvetica;-inkscape-font-specification:Helvetica;writing-mode:lr-tb;fill:#000000;fill-opacity:1;fill-rule:nonzero;stroke:none"
   id="text50"><tspan
     x="0 10.008"
     y="0"
     sodipodi:role="line"
     id="tspan48">20</tspan></text>

<text
   transform="matrix(1,0,0,-1,530.78,47.52)"
   style="font-variant:normal;font-weight:normal;font-size:18px;font-family:Helvetica;-inkscape-font-specification:Helvetica;writing-mode:lr-tb;fill:#000000;fill-opacity:1;fill-rule:nonzero;stroke:none"
   id="text54"><tspan
     x="0 10.008"
     y="0"
     sodipodi:role="line"
     id="tspan52">30</tspan></text>

<text
   transform="matrix(1,0,0,-1,680.02,47.52)"
   style="font-variant:normal;font-weight:normal;font-size:18px;font-family:Helvetica;-inkscape-font-specification:Helvetica;writing-mode:lr-tb;fill:#000000;fill-opacity:1;fill-rule:nonzero;stroke:none"
   id="text58"><tspan
     x="0 10.008"
     y="0"
     sodipodi:role="line"
     id="tspan56">40</tspan></text>

<text
   transform="matrix(1,0,0,-1,829.26,47.52)"
   style="font-variant:normal;font-weight:normal;font-size:18px;font-family:Helvetica;-inkscape-font-specification:Helvetica;writing-mode:lr-tb;fill:#000000;fill-opacity:1;fill-rule:nonzero;stroke:none"
   id="text62"><tspan
     x="0 10.008"
     y="0"
     sodipodi:role="line"
     id="tspan60">50</tspan></text>

<path
   d="m 59.04,87.2 v 344"
   style="fill:none;stroke:#000000;stroke-width:0.75;stroke-linecap:round;stroke-linejoin:round;stroke-miterlimit:10;stroke-dasharray:none;stroke-opacity:1"
   id="path64"
   inkscape:connector-curvature="0" /><path
   d="m 59.04,87.2 h -7.2"
   style="fill:none;stroke:#000000;stroke-width:0.75;stroke-linecap:round;stroke-linejoin:round;stroke-miterlimit:10;stroke-dasharray:none;stroke-opacity:1"
   id="path66"
   inkscape:connector-curvature="0" /><path
   d="m 59.04,156 h -7.2"
   style="fill:none;stroke:#000000;stroke-width:0.75;stroke-linecap:round;stroke-linejoin:round;stroke-miterlimit:10;stroke-dasharray:none;stroke-opacity:1"
   id="path68"
   inkscape:connector-curvature="0" /><path
   d="m 59.04,224.8 h -7.2"
   style="fill:none;stroke:#000000;stroke-width:0.75;stroke-linecap:round;stroke-linejoin:round;stroke-miterlimit:10;stroke-dasharray:none;stroke-opacity:1"
   id="path70"
   inkscape:connector-curvature="0" /><path
   d="m 59.04,293.6 h -7.2"
   style="fill:none;stroke:#000000;stroke-width:0.75;stroke-linecap:round;stroke-linejoin:round;stroke-miterlimit:10;stroke-dasharray:none;stroke-opacity:1"
   id="path72"
   inkscape:connector-curvature="0" /><path
   d="m 59.04,362.4 h -7.2"
   style="fill:none;stroke:#000000;stroke-width:0.75;stroke-linecap:round;stroke-linejoin:round;stroke-miterlimit:10;stroke-dasharray:none;stroke-opacity:1"
   id="path74"
   inkscape:connector-curvature="0" /><path
   d="m 59.04,431.2 h -7.2"
   style="fill:none;stroke:#000000;stroke-width:0.75;stroke-linecap:round;stroke-linejoin:round;stroke-miterlimit:10;stroke-dasharray:none;stroke-opacity:1"
   id="path76"
   inkscape:connector-curvature="0" /><text
   transform="matrix(0,1,1,0,41.76,74.69)"
   style="font-variant:normal;font-weight:normal;font-size:18px;font-family:Helvetica;-inkscape-font-specification:Helvetica;writing-mode:lr-tb;fill:#000000;fill-opacity:1;fill-rule:nonzero;stroke:none"
   id="text80"><tspan
     x="0 10.008 15.012"
     y="0"
     sodipodi:role="line"
     id="tspan78">0.0</tspan></text>

<text
   transform="matrix(0,1,1,0,41.76,143.49)"
   style="font-variant:normal;font-weight:normal;font-size:18px;font-family:Helvetica;-inkscape-font-specification:Helvetica;writing-mode:lr-tb;fill:#000000;fill-opacity:1;fill-rule:nonzero;stroke:none"
   id="text84"><tspan
     x="0 10.008 15.012"
     y="0"
     sodipodi:role="line"
     id="tspan82">0.2</tspan></text>

<text
   transform="matrix(0,1,1,0,41.76,212.29)"
   style="font-variant:normal;font-weight:normal;font-size:18px;font-family:Helvetica;-inkscape-font-specification:Helvetica;writing-mode:lr-tb;fill:#000000;fill-opacity:1;fill-rule:nonzero;stroke:none"
   id="text88"><tspan
     x="0 10.008 15.012"
     y="0"
     sodipodi:role="line"
     id="tspan86">0.4</tspan></text>

<text
   transform="matrix(0,1,1,0,41.76,281.09)"
   style="font-variant:normal;font-weight:normal;font-size:18px;font-family:Helvetica;-inkscape-font-specification:Helvetica;writing-mode:lr-tb;fill:#000000;fill-opacity:1;fill-rule:nonzero;stroke:none"
   id="text92"><tspan
     x="0 10.008 15.012"
     y="0"
     sodipodi:role="line"
     id="tspan90">0.6</tspan></text>

<text
   transform="matrix(0,1,1,0,41.76,349.89)"
   style="font-variant:normal;font-weight:normal;font-size:18px;font-family:Helvetica;-inkscape-font-specification:Helvetica;writing-mode:lr-tb;fill:#000000;fill-opacity:1;fill-rule:nonzero;stroke:none"
   id="text96"><tspan
     x="0 10.008 15.012"
     y="0"
     sodipodi:role="line"
     id="tspan94">0.8</tspan></text>

<text
   transform="matrix(0,1,1,0,41.76,418.69)"
   style="font-variant:normal;font-weight:normal;font-size:18px;font-family:Helvetica;-inkscape-font-specification:Helvetica;writing-mode:lr-tb;fill:#000000;fill-opacity:1;fill-rule:nonzero;stroke:none"
   id="text100"><tspan
     x="0 10.008 15.012"
     y="0"
     sodipodi:role="line"
     id="tspan98">1.0</tspan></text>

<path
   d="M 59.04,73.44 H 977.76 V 444.96 H 59.04 V 73.44"
   style="fill:none;stroke:#000000;stroke-width:0.75;stroke-linecap:round;stroke-linejoin:round;stroke-miterlimit:10;stroke-dasharray:none;stroke-opacity:1"
   id="path102"
   inkscape:connector-curvature="0" /></g><g
       id="g104"><text
   transform="matrix(1,0,0,-1,476.34,18.72)"
   style="font-variant:normal;font-weight:normal;font-size:18px;font-family:Helvetica;-inkscape-font-specification:Helvetica;writing-mode:lr-tb;fill:#000000;fill-opacity:1;fill-rule:nonzero;stroke:none"
   id="text108"><tspan
     x="0 10.998 16.812 26.82 41.813999 51.821999 56.826 69.821999 79.110001"
     y="0"
     sodipodi:role="line"
     id="tspan106">Frame No.</tspan></text>

<text
   transform="matrix(0,1,1,0,12.96,218.94)"
   style="font-variant:normal;font-weight:normal;font-size:18px;font-family:Helvetica;-inkscape-font-specification:Helvetica;writing-mode:lr-tb;fill:#000000;fill-opacity:1;fill-rule:nonzero;stroke:none"
   id="text112"><tspan
     x="0 10.998 25.992001 36.504002 45.504002 54.504002 64.512001 70.505997"
     y="0"
     sodipodi:role="line"
     id="tspan110">TM−score</tspan></text>

</g><rect
       style="opacity:1;fill:none;fill-opacity:1;fill-rule:nonzero;stroke:#ff0000;stroke-width:3;stroke-miterlimit:4;stroke-dasharray:none;stroke-dashoffset:0;stroke-opacity:1"
       id="rect913"
       width="121.05882"
       height="60.529411"
       x="346.54837"
       y="-286.66443"
       transform="scale(1,-1)" /><rect
       style="opacity:1;fill:none;fill-opacity:1;fill-rule:nonzero;stroke:#ff0000;stroke-width:3;stroke-miterlimit:4;stroke-dasharray:none;stroke-dashoffset:0;stroke-opacity:1"
       id="rect915"
       width="32.117645"
       height="32.117645"
       x="525.85999"
       y="-232.18765"
       transform="scale(1,-1)" /><rect
       style="opacity:1;fill:none;fill-opacity:1;fill-rule:nonzero;stroke:#ff0000;stroke-width:3;stroke-miterlimit:4;stroke-dasharray:none;stroke-dashoffset:0;stroke-opacity:1"
       id="rect919"
       width="51.882351"
       height="23.470589"
       x="666.78998"
       y="-176.65643"
       transform="scale(1,-1)" /><rect
       style="opacity:1;fill:none;fill-opacity:1;fill-rule:nonzero;stroke:#ff0000;stroke-width:3;stroke-miterlimit:4;stroke-dasharray:none;stroke-dashoffset:0;stroke-opacity:1"
       id="rect921"
       width="63.862377"
       height="31.281172"
       x="785.6629"
       y="-176.79056"
       transform="scale(1,-1)" /><rect
       style="opacity:1;fill:none;fill-opacity:1;fill-rule:nonzero;stroke:#ff0000;stroke-width:3;stroke-miterlimit:4;stroke-dasharray:none;stroke-dashoffset:0;stroke-opacity:1"
       id="rect923"
       width="90.176468"
       height="39.529415"
       x="277.67239"
       y="-172.95056"
       transform="scale(1,-1)" /><rect
       style="opacity:1;fill:none;fill-opacity:1;fill-rule:nonzero;stroke:#ff0000;stroke-width:3;stroke-miterlimit:4;stroke-dasharray:none;stroke-dashoffset:0;stroke-opacity:1"
       id="rect925"
       width="44.005863"
       height="34.689419"
       x="720.43707"
       y="-233.47997"
       transform="scale(1,-1)" /><rect
       style="opacity:1;fill:none;fill-opacity:1;fill-rule:nonzero;stroke:#ff0000;stroke-width:3;stroke-miterlimit:4;stroke-dasharray:none;stroke-dashoffset:0;stroke-opacity:1"
       id="rect927"
       width="133.41177"
       height="43.235298"
       x="836.02533"
       y="-436.06821"
       transform="scale(1,-1)" /><rect
       style="opacity:1;fill:none;fill-opacity:1;fill-rule:nonzero;stroke:#ff0000;stroke-width:4.10676098;stroke-miterlimit:4;stroke-dasharray:none;stroke-dashoffset:0;stroke-opacity:1"
       id="rect929"
       width="63.122944"
       height="17.667475"
       x="559.8728"
       y="-167.45601"
       transform="scale(1,-1)" /><rect
       style="opacity:1;fill:none;fill-opacity:1;fill-rule:nonzero;stroke:#0000ff;stroke-width:3;stroke-miterlimit:4;stroke-dasharray:3.00000008, 3.00000008;stroke-dashoffset:0;stroke-opacity:1"
       id="rect877"
       width="41.999958"
       height="103.76472"
       x="404.51355"
       y="-354.27426"
       transform="scale(1,-1)" /></g></svg>