<?xml version="1.0" encoding="UTF-8" standalone="no"?>
<!-- Created with Inkscape (http://www.inkscape.org/) -->

<svg
   xmlns:dc="http://purl.org/dc/elements/1.1/"
   xmlns:cc="http://creativecommons.org/ns#"
   xmlns:rdf="http://www.w3.org/1999/02/22-rdf-syntax-ns#"
   xmlns:svg="http://www.w3.org/2000/svg"
   xmlns="http://www.w3.org/2000/svg"
   xmlns:sodipodi="http://sodipodi.sourceforge.net/DTD/sodipodi-0.dtd"
   xmlns:inkscape="http://www.inkscape.org/namespaces/inkscape"
   version="1.1"
   id="svg2"
   xml:space="preserve"
   width="1344"
   height="672"
   viewBox="0 0 1344 672"
   sodipodi:docname="1FCA1-40b05t10k-pdbs-ann.svg"
   inkscape:version="0.92.3 (2405546, 2018-03-11)"><metadata
     id="metadata8"><rdf:RDF><cc:Work
         rdf:about=""><dc:format>image/svg+xml</dc:format><dc:type
           rdf:resource="http://purl.org/dc/dcmitype/StillImage" /><dc:title></dc:title></cc:Work></rdf:RDF></metadata><defs
     id="defs6"><clipPath
       clipPathUnits="userSpaceOnUse"
       id="clipPath20"><path
         d="M 59.04,73.44 H 977.76 V 444.96 H 59.04 Z"
         id="path18"
         inkscape:connector-curvature="0" /></clipPath></defs><sodipodi:namedview
     pagecolor="#ffffff"
     bordercolor="#666666"
     borderopacity="1"
     objecttolerance="10"
     gridtolerance="10"
     guidetolerance="10"
     inkscape:pageopacity="0"
     inkscape:pageshadow="2"
     inkscape:window-width="1366"
     inkscape:window-height="732"
     id="namedview4"
     showgrid="false"
     inkscape:zoom="0.60714286"
     inkscape:cx="640.3732"
     inkscape:cy="90.921332"
     inkscape:window-x="-2"
     inkscape:window-y="-2"
     inkscape:window-maximized="1"
     inkscape:current-layer="g10" /><g
     id="g10"
     inkscape:groupmode="layer"
     inkscape:label="1FCA1-40b05t10k-pdbs"
     transform="matrix(1.3333333,0,0,-1.3333333,0,672)"><g
       id="g12" /><g
       id="g14"><g
         id="g16"
         clip-path="url(#clipPath20)"><path
           d="m 93.07,142.72 3.57,-2.23 3.58,-3.34 3.57,-1.76 3.57,-2.44 3.58,-3.51 3.57,-2.65 3.58,0.42 3.57,-0.62 3.57,0.34 3.58,0.72 3.57,0.59 3.58,0.41 3.57,0.38 3.58,0.52 3.57,1.03 3.57,1.79 3.58,3.02 3.57,-1.23 3.58,-1.24 3.57,-0.76 3.58,-0.24 3.57,0.1 3.57,0.35 3.58,0.44 3.57,0.69 3.58,0.86 3.57,0.83 3.58,0.72 3.57,0.72 3.57,0.69 3.58,0.62 3.57,0.52 3.58,0.48 3.57,0.51 3.57,0.76 3.58,0.62 3.57,0.31 3.58,0.14 3.57,-0.42 3.58,2.07 3.57,1.99 3.57,-0.24 3.58,-0.34 3.57,-0.07 3.58,0.14 3.57,0.2 3.58,0.38 3.57,0.24 3.57,0.48 3.58,0.69 3.57,0.69 3.58,1.1 3.57,2.89 3.58,2.65 3.57,0.31 3.57,-3.2 3.58,-4.92 3.57,-2.51 3.58,3.03 3.57,2.16 3.57,0.24 3.58,-1.41 3.57,-1.96 3.58,-1.1 3.57,1.86 3.58,3.37 3.57,4.54 3.57,5.61 3.58,5.78 3.57,6.4 3.58,6.5 3.57,6.78 3.58,7.12 3.57,7.43 3.57,7.6 3.58,5.61 3.57,-4.82 3.58,10.42 3.57,14.25 3.58,13.38 3.57,6.6 3.57,-16.41 3.58,-14.72 3.57,-11.7 3.58,-7.67 3.57,13.01 3.57,17.71 3.58,32.78 3.57,13.21 3.58,-5.64 3.57,-3.61 3.58,2.96 3.57,-16.2 3.57,-17.86 3.58,-17.61 3.57,-14.1 3.58,-11.53 3.57,-9.77 3.58,2.93 3.57,2.58 3.57,3.23 3.58,2.92 3.57,1.38 3.58,0.14 3.57,-1.1 3.58,-2.48 3.57,-2.44 3.57,-3.65 3.58,3.92 3.57,0.07 3.58,-4.99 3.57,-0.17 3.57,-2.92 3.58,-9.01 3.57,5.84 3.58,11.6 3.57,6.57 3.58,21.46 3.57,6.23 3.57,-15.28 3.58,-18.3 3.57,-13.89 3.58,0.27 3.57,0.69 3.58,1.07 3.57,1.3 3.57,0.93 3.58,-0.31 3.57,-2.16 3.58,-4.51 3.57,-6.64 3.57,-5.99 3.58,-5.22 3.57,-4.03 3.58,0.17 3.57,0.76 3.58,1.27 3.57,2.34 3.57,2.2 3.58,2.17 3.57,2.82 3.58,2.31 3.57,2.03 3.58,1.92 3.57,1.24 3.57,1.07 3.58,4.3 3.57,3.16 3.58,1.45 3.57,-0.28 3.58,-1.55 3.57,-2.3 3.57,-3.13 3.58,-3.51 3.57,6.05 3.58,5.4 3.57,4.41 3.57,2.89 3.58,1.24 3.57,-0.93 3.58,-3.82 3.57,-6.54 3.58,-7.57 3.57,-6.88 3.57,-5.95 3.58,-4.68 3.57,4.58 3.58,5.92 3.57,6.95 3.58,7.7 3.57,7.67 3.57,5.99 3.58,3.85 3.57,1.14 3.58,-1.97 3.57,-4.23 3.58,-6.15 3.57,2.68 3.57,6.16 3.58,6.02 3.57,5.05 3.58,5.23 3.57,2.86 3.57,-20.71 3.58,-2.65 3.57,-3.85 3.58,-7.5 3.57,-9.15 3.58,-2.51 3.57,-2.58 3.57,-2.65 3.58,-2.69 3.57,-2.64 3.58,-2.62 3.57,-2.51 3.58,-2.34 3.57,1.48 3.57,1.51 3.58,1.52 3.57,2.65 3.58,4.47 3.57,4.26 3.58,2.62 3.57,1.61 3.57,-0.17 3.58,0.83 3.57,7.91 3.58,8.53 3.57,6.12 3.57,7.3 3.58,10.32 3.57,22.43 3.58,62.91 3.57,83.84 3.58,20.22 3.57,-1.37 3.57,-22.74 3.58,17.85 3.57,-27.14 3.58,-41.31 3.57,36.15 3.58,28.38 3.57,-12.69 3.57,18.06 3.58,-5.44 3.57,-23.35 3.58,30.92 3.57,19.85 3.58,-3.23 3.57,6.08 3.57,-10.21 3.58,-21.5 3.57,17.78 3.58,8.4 3.57,-3.17 3.57,12.18 3.58,4.54 h 3.57"
           style="fill:none;stroke:#000000;stroke-width:0.75;stroke-linecap:round;stroke-linejoin:round;stroke-miterlimit:10;stroke-dasharray:none;stroke-opacity:1"
           id="path22"
           inkscape:connector-curvature="0" /></g></g><g
       id="g24"><path
   d="M 93.07,73.44 H 807.91"
   style="fill:none;stroke:#000000;stroke-width:0.75;stroke-linecap:round;stroke-linejoin:round;stroke-miterlimit:10;stroke-dasharray:none;stroke-opacity:1"
   id="path26"
   inkscape:connector-curvature="0" /><path
   d="m 93.07,73.44 v -7.2"
   style="fill:none;stroke:#000000;stroke-width:0.75;stroke-linecap:round;stroke-linejoin:round;stroke-miterlimit:10;stroke-dasharray:none;stroke-opacity:1"
   id="path28"
   inkscape:connector-curvature="0" /><path
   d="m 271.78,73.44 v -7.2"
   style="fill:none;stroke:#000000;stroke-width:0.75;stroke-linecap:round;stroke-linejoin:round;stroke-miterlimit:10;stroke-dasharray:none;stroke-opacity:1"
   id="path30"
   inkscape:connector-curvature="0" /><path
   d="m 450.49,73.44 v -7.2"
   style="fill:none;stroke:#000000;stroke-width:0.75;stroke-linecap:round;stroke-linejoin:round;stroke-miterlimit:10;stroke-dasharray:none;stroke-opacity:1"
   id="path32"
   inkscape:connector-curvature="0" /><path
   d="m 629.2,73.44 v -7.2"
   style="fill:none;stroke:#000000;stroke-width:0.75;stroke-linecap:round;stroke-linejoin:round;stroke-miterlimit:10;stroke-dasharray:none;stroke-opacity:1"
   id="path34"
   inkscape:connector-curvature="0" /><path
   d="m 807.91,73.44 v -7.2"
   style="fill:none;stroke:#000000;stroke-width:0.75;stroke-linecap:round;stroke-linejoin:round;stroke-miterlimit:10;stroke-dasharray:none;stroke-opacity:1"
   id="path36"
   inkscape:connector-curvature="0" /><text
   transform="matrix(1,0,0,-1,88.06,47.52)"
   style="font-variant:normal;font-weight:normal;font-size:18px;font-family:Helvetica;-inkscape-font-specification:Helvetica;writing-mode:lr-tb;fill:#000000;fill-opacity:1;fill-rule:nonzero;stroke:none"
   id="text40"><tspan
     x="0"
     y="0"
     id="tspan38">0</tspan></text>

<text
   transform="matrix(1,0,0,-1,261.77,47.52)"
   style="font-variant:normal;font-weight:normal;font-size:18px;font-family:Helvetica;-inkscape-font-specification:Helvetica;writing-mode:lr-tb;fill:#000000;fill-opacity:1;fill-rule:nonzero;stroke:none"
   id="text44"><tspan
     x="0 10.008"
     y="0"
     sodipodi:role="line"
     id="tspan42">50</tspan></text>

<text
   transform="matrix(1,0,0,-1,435.48,47.52)"
   style="font-variant:normal;font-weight:normal;font-size:18px;font-family:Helvetica;-inkscape-font-specification:Helvetica;writing-mode:lr-tb;fill:#000000;fill-opacity:1;fill-rule:nonzero;stroke:none"
   id="text48"><tspan
     x="0 10.008 20.016001"
     y="0"
     sodipodi:role="line"
     id="tspan46">100</tspan></text>

<text
   transform="matrix(1,0,0,-1,614.19,47.52)"
   style="font-variant:normal;font-weight:normal;font-size:18px;font-family:Helvetica;-inkscape-font-specification:Helvetica;writing-mode:lr-tb;fill:#000000;fill-opacity:1;fill-rule:nonzero;stroke:none"
   id="text52"><tspan
     x="0 10.008 20.016001"
     y="0"
     sodipodi:role="line"
     id="tspan50">150</tspan></text>

<text
   transform="matrix(1,0,0,-1,792.9,47.52)"
   style="font-variant:normal;font-weight:normal;font-size:18px;font-family:Helvetica;-inkscape-font-specification:Helvetica;writing-mode:lr-tb;fill:#000000;fill-opacity:1;fill-rule:nonzero;stroke:none"
   id="text56"><tspan
     x="0 10.008 20.016001"
     y="0"
     sodipodi:role="line"
     id="tspan54">200</tspan></text>

<path
   d="m 59.04,87.2 v 344"
   style="fill:none;stroke:#000000;stroke-width:0.75;stroke-linecap:round;stroke-linejoin:round;stroke-miterlimit:10;stroke-dasharray:none;stroke-opacity:1"
   id="path58"
   inkscape:connector-curvature="0" /><path
   d="m 59.04,87.2 h -7.2"
   style="fill:none;stroke:#000000;stroke-width:0.75;stroke-linecap:round;stroke-linejoin:round;stroke-miterlimit:10;stroke-dasharray:none;stroke-opacity:1"
   id="path60"
   inkscape:connector-curvature="0" /><path
   d="m 59.04,156 h -7.2"
   style="fill:none;stroke:#000000;stroke-width:0.75;stroke-linecap:round;stroke-linejoin:round;stroke-miterlimit:10;stroke-dasharray:none;stroke-opacity:1"
   id="path62"
   inkscape:connector-curvature="0" /><path
   d="m 59.04,224.8 h -7.2"
   style="fill:none;stroke:#000000;stroke-width:0.75;stroke-linecap:round;stroke-linejoin:round;stroke-miterlimit:10;stroke-dasharray:none;stroke-opacity:1"
   id="path64"
   inkscape:connector-curvature="0" /><path
   d="m 59.04,293.6 h -7.2"
   style="fill:none;stroke:#000000;stroke-width:0.75;stroke-linecap:round;stroke-linejoin:round;stroke-miterlimit:10;stroke-dasharray:none;stroke-opacity:1"
   id="path66"
   inkscape:connector-curvature="0" /><path
   d="m 59.04,362.4 h -7.2"
   style="fill:none;stroke:#000000;stroke-width:0.75;stroke-linecap:round;stroke-linejoin:round;stroke-miterlimit:10;stroke-dasharray:none;stroke-opacity:1"
   id="path68"
   inkscape:connector-curvature="0" /><path
   d="m 59.04,431.2 h -7.2"
   style="fill:none;stroke:#000000;stroke-width:0.75;stroke-linecap:round;stroke-linejoin:round;stroke-miterlimit:10;stroke-dasharray:none;stroke-opacity:1"
   id="path70"
   inkscape:connector-curvature="0" /><text
   transform="matrix(0,1,1,0,41.76,74.69)"
   style="font-variant:normal;font-weight:normal;font-size:18px;font-family:Helvetica;-inkscape-font-specification:Helvetica;writing-mode:lr-tb;fill:#000000;fill-opacity:1;fill-rule:nonzero;stroke:none"
   id="text74"><tspan
     x="0 10.008 15.012"
     y="0"
     sodipodi:role="line"
     id="tspan72">0.0</tspan></text>

<text
   transform="matrix(0,1,1,0,41.76,143.49)"
   style="font-variant:normal;font-weight:normal;font-size:18px;font-family:Helvetica;-inkscape-font-specification:Helvetica;writing-mode:lr-tb;fill:#000000;fill-opacity:1;fill-rule:nonzero;stroke:none"
   id="text78"><tspan
     x="0 10.008 15.012"
     y="0"
     sodipodi:role="line"
     id="tspan76">0.2</tspan></text>

<text
   transform="matrix(0,1,1,0,41.76,212.29)"
   style="font-variant:normal;font-weight:normal;font-size:18px;font-family:Helvetica;-inkscape-font-specification:Helvetica;writing-mode:lr-tb;fill:#000000;fill-opacity:1;fill-rule:nonzero;stroke:none"
   id="text82"><tspan
     x="0 10.008 15.012"
     y="0"
     sodipodi:role="line"
     id="tspan80">0.4</tspan></text>

<text
   transform="matrix(0,1,1,0,41.76,281.09)"
   style="font-variant:normal;font-weight:normal;font-size:18px;font-family:Helvetica;-inkscape-font-specification:Helvetica;writing-mode:lr-tb;fill:#000000;fill-opacity:1;fill-rule:nonzero;stroke:none"
   id="text86"><tspan
     x="0 10.008 15.012"
     y="0"
     sodipodi:role="line"
     id="tspan84">0.6</tspan></text>

<text
   transform="matrix(0,1,1,0,41.76,349.89)"
   style="font-variant:normal;font-weight:normal;font-size:18px;font-family:Helvetica;-inkscape-font-specification:Helvetica;writing-mode:lr-tb;fill:#000000;fill-opacity:1;fill-rule:nonzero;stroke:none"
   id="text90"><tspan
     x="0 10.008 15.012"
     y="0"
     sodipodi:role="line"
     id="tspan88">0.8</tspan></text>

<text
   transform="matrix(0,1,1,0,41.76,418.69)"
   style="font-variant:normal;font-weight:normal;font-size:18px;font-family:Helvetica;-inkscape-font-specification:Helvetica;writing-mode:lr-tb;fill:#000000;fill-opacity:1;fill-rule:nonzero;stroke:none"
   id="text94"><tspan
     x="0 10.008 15.012"
     y="0"
     sodipodi:role="line"
     id="tspan92">1.0</tspan></text>

<path
   d="M 59.04,73.44 H 977.76 V 444.96 H 59.04 V 73.44"
   style="fill:none;stroke:#000000;stroke-width:0.75;stroke-linecap:round;stroke-linejoin:round;stroke-miterlimit:10;stroke-dasharray:none;stroke-opacity:1"
   id="path96"
   inkscape:connector-curvature="0" /></g><g
       id="g98"><text
   transform="matrix(1,0,0,-1,476.34,18.72)"
   style="font-variant:normal;font-weight:normal;font-size:18px;font-family:Helvetica;-inkscape-font-specification:Helvetica;writing-mode:lr-tb;fill:#000000;fill-opacity:1;fill-rule:nonzero;stroke:none"
   id="text102"><tspan
     x="0 10.998 16.812 26.82 41.813999 51.821999 56.826 69.821999 79.110001"
     y="0"
     sodipodi:role="line"
     id="tspan100">Frame No.</tspan></text>

<text
   transform="matrix(0,1,1,0,12.96,218.94)"
   style="font-variant:normal;font-weight:normal;font-size:18px;font-family:Helvetica;-inkscape-font-specification:Helvetica;writing-mode:lr-tb;fill:#000000;fill-opacity:1;fill-rule:nonzero;stroke:none"
   id="text106"><tspan
     x="0 10.998 25.992001 36.504002 45.504002 54.504002 64.512001 70.505997"
     y="0"
     sodipodi:role="line"
     id="tspan104">TM−score</tspan></text>

</g><rect
       style="opacity:1;fill:none;fill-opacity:1;fill-rule:nonzero;stroke:#ff0000;stroke-width:3;stroke-miterlimit:4;stroke-dasharray:none;stroke-dashoffset:0;stroke-opacity:1"
       id="rect913"
       width="121.05882"
       height="60.529411"
       x="336"
       y="-296.47061"
       transform="scale(1,-1)" /><rect
       style="opacity:1;fill:none;fill-opacity:1;fill-rule:nonzero;stroke:#ff0000;stroke-width:3;stroke-miterlimit:4;stroke-dasharray:none;stroke-dashoffset:0;stroke-opacity:1"
       id="rect915"
       width="32.117645"
       height="32.117645"
       x="501.52942"
       y="-239.64706"
       transform="scale(1,-1)" /><rect
       style="opacity:1;fill:none;fill-opacity:1;fill-rule:nonzero;stroke:#ff0000;stroke-width:3;stroke-miterlimit:4;stroke-dasharray:none;stroke-dashoffset:0;stroke-opacity:1"
       id="rect919"
       width="51.882351"
       height="23.470589"
       x="659.64709"
       y="-171.70587"
       transform="scale(1,-1)" /><rect
       style="opacity:1;fill:none;fill-opacity:1;fill-rule:nonzero;stroke:#ff0000;stroke-width:3;stroke-miterlimit:4;stroke-dasharray:none;stroke-dashoffset:0;stroke-opacity:1"
       id="rect921"
       width="63.862377"
       height="31.281172"
       x="765.01996"
       y="-173.34"
       transform="scale(1,-1)" /><rect
       style="opacity:1;fill:none;fill-opacity:1;fill-rule:nonzero;stroke:#ff0000;stroke-width:3;stroke-miterlimit:4;stroke-dasharray:none;stroke-dashoffset:0;stroke-opacity:1"
       id="rect923"
       width="90.176468"
       height="39.529415"
       x="270.52942"
       y="-168"
       transform="scale(1,-1)" /><rect
       style="opacity:1;fill:none;fill-opacity:1;fill-rule:nonzero;stroke:#ff0000;stroke-width:3;stroke-miterlimit:4;stroke-dasharray:none;stroke-dashoffset:0;stroke-opacity:1"
       id="rect925"
       width="44.005863"
       height="34.689419"
       x="710.29413"
       y="-228.5294"
       transform="scale(1,-1)" /><rect
       style="opacity:1;fill:none;fill-opacity:1;fill-rule:nonzero;stroke:#ff0000;stroke-width:3;stroke-miterlimit:4;stroke-dasharray:none;stroke-dashoffset:0;stroke-opacity:1"
       id="rect927"
       width="133.41177"
       height="43.235298"
       x="828.88239"
       y="-431.11765"
       transform="scale(1,-1)" /><rect
       style="opacity:1;fill:none;fill-opacity:1;fill-rule:nonzero;stroke:#ff0000;stroke-width:3;stroke-miterlimit:4;stroke-dasharray:none;stroke-dashoffset:0;stroke-opacity:1"
       id="rect929"
       width="48.176468"
       height="12.352942"
       x="552.17645"
       y="-163.05884"
       transform="scale(1,-1)" /><rect
       style="opacity:1;fill:none;fill-opacity:1;fill-rule:nonzero;stroke:#0000ff;stroke-width:3;stroke-miterlimit:4;stroke-dasharray:3.00000008, 3.00000008;stroke-dashoffset:0;stroke-opacity:1"
       id="rect877"
       width="41.999958"
       height="103.76472"
       x="396.52939"
       y="-344.82352"
       transform="scale(1,-1)" /></g></svg>