<?xml version="1.0" encoding="UTF-8" standalone="no"?>
<!-- Created with Inkscape (http://www.inkscape.org/) -->

<svg
   xmlns:dc="http://purl.org/dc/elements/1.1/"
   xmlns:cc="http://creativecommons.org/ns#"
   xmlns:rdf="http://www.w3.org/1999/02/22-rdf-syntax-ns#"
   xmlns:svg="http://www.w3.org/2000/svg"
   xmlns="http://www.w3.org/2000/svg"
   xmlns:sodipodi="http://sodipodi.sourceforge.net/DTD/sodipodi-0.dtd"
   xmlns:inkscape="http://www.inkscape.org/namespaces/inkscape"
   version="1.1"
   id="svg2"
   xml:space="preserve"
   width="1344"
   height="672"
   viewBox="0 0 1344 672"
   sodipodi:docname="2YCC-50b05t05k-pdbs-ann.svg"
   inkscape:version="0.92.3 (2405546, 2018-03-11)"><metadata
     id="metadata8"><rdf:RDF><cc:Work
         rdf:about=""><dc:format>image/svg+xml</dc:format><dc:type
           rdf:resource="http://purl.org/dc/dcmitype/StillImage" /><dc:title /></cc:Work></rdf:RDF></metadata><defs
     id="defs6"><clipPath
       clipPathUnits="userSpaceOnUse"
       id="clipPath20"><path
         d="M 59.04,73.44 H 977.76 V 444.96 H 59.04 Z"
         id="path18"
         inkscape:connector-curvature="0" /></clipPath></defs><sodipodi:namedview
     pagecolor="#ffffff"
     bordercolor="#666666"
     borderopacity="1"
     objecttolerance="10"
     gridtolerance="10"
     guidetolerance="10"
     inkscape:pageopacity="0"
     inkscape:pageshadow="2"
     inkscape:window-width="1366"
     inkscape:window-height="732"
     id="namedview4"
     showgrid="false"
     inkscape:zoom="0.65104167"
     inkscape:cx="801.776"
     inkscape:cy="336"
     inkscape:window-x="-2"
     inkscape:window-y="-2"
     inkscape:window-maximized="1"
     inkscape:current-layer="g10" /><g
     id="g10"
     inkscape:groupmode="layer"
     inkscape:label="2YCC-50b05t05k-pdbs"
     transform="matrix(1.3333333,0,0,-1.3333333,0,672)"><g
       id="g12" /><g
       id="g14"><g
         id="g16"
         clip-path="url(#clipPath20)"><path
           d="m 93.07,138.8 3.18,3.03 3.19,2.51 3.18,0.62 3.19,-2.65 3.19,-4.03 3.18,-0.82 3.19,-2.17 3.18,-1.72 3.19,-1.82 3.19,4.85 3.18,-5.4 3.19,0.17 3.18,-0.96 3.19,3.81 3.19,-4.91 3.18,0.44 3.19,2.89 3.18,1.03 3.19,-3.57 3.19,-1.45 3.18,1.34 3.19,-0.13 3.19,0.99 3.18,1.04 3.19,0.41 3.18,-1 3.19,-0.07 3.19,-1.86 3.18,1.21 3.19,1.24 3.18,-0.07 3.19,6.4 3.19,1.58 3.18,-3.92 3.19,3.06 3.18,1.55 3.19,-0.31 3.19,-1.86 3.18,-1.24 3.19,-1.27 3.18,-2.82 3.19,-1.14 3.19,1.93 3.18,-4.23 3.19,-0.04 3.18,0.24 3.19,0.62 3.19,1.86 3.18,4.54 3.19,3.03 3.18,1.2 3.19,-0.34 3.19,-1.72 3.18,3.51 3.19,3.88 3.18,-6.29 3.19,-4.33 3.19,-1 3.18,1.89 3.19,-0.65 3.18,-1.21 3.19,-0.96 3.19,-1.31 3.18,-0.24 3.19,-0.58 3.18,-0.45 3.19,1.55 3.19,1.82 3.18,1.41 3.19,0.69 3.18,2.96 3.19,5.6 3.19,-2.64 3.18,-4.3 3.19,-1.42 3.18,-1.13 3.19,-0.86 3.19,-5.99 3.18,4.13 3.19,-2.58 3.18,3.37 3.19,2.86 3.19,1.1 3.18,-1.1 3.19,-1.62 3.18,-0.24 3.19,0.07 3.19,-0.45 3.18,-3.23 3.19,-1.1 3.18,1.2 3.19,1.27 3.19,1.35 3.18,1.51 3.19,1.69 3.18,1.78 3.19,2.21 3.19,2.34 3.18,2.95 3.19,3.1 3.18,3.54 3.19,2.93 3.19,1.96 3.18,1.06 3.19,0.07 3.18,-0.82 3.19,-1.52 3.19,1.35 3.18,0.17 3.19,-1.03 3.18,-2.14 3.19,-2.85 3.19,3.33 3.18,3.79 3.19,4.5 3.18,5.3 3.19,6.47 3.19,7.53 3.18,8.19 3.19,7.95 3.18,8.29 3.19,0.68 3.19,6.85 3.18,6.85 3.19,5.53 3.18,1.9 3.19,-0.07 3.19,-2.69 3.18,-4.09 3.19,-5.12 3.18,-5.96 3.19,-5.74 3.19,2.54 3.18,2.14 3.19,3.06 3.19,5.95 3.18,-2.3 3.19,-2.83 3.18,-2.85 3.19,-1.51 3.19,-2.21 3.18,-2.2 3.19,5.13 3.18,-2.62 3.19,-3.68 3.19,-4.88 3.18,-5.99 3.19,-6.26 3.18,-6.16 3.19,-5.33 3.19,-4.57 3.18,-3.41 3.19,2.2 3.18,3.13 3.19,3.03 3.19,2.89 3.18,1.51 3.19,0.11 3.18,-1.52 3.19,-2.92 3.19,-4.16 3.18,-3.72 3.19,3.37 3.18,4.41 3.19,6.36 3.19,10.29 3.18,6.22 3.19,-5.64 3.18,-0.1 3.19,-3.06 3.19,7.53 3.18,1.2 3.19,-5.09 3.18,-9.97 3.19,-5.09 3.19,-1 3.18,-2.93 3.19,-4.5 3.18,4.95 3.19,6.57 3.19,14.21 3.18,8.63 3.19,-1.79 3.18,-8.77 3.19,-9.01 3.19,-7.81 3.18,5.99 3.19,10.14 3.18,5.37 3.19,-1 3.19,-3.02 3.18,-5.06 3.19,-2.17 3.18,1.41 3.19,3.44 3.19,10.08 3.18,12.59 3.19,8.02 3.18,1.24 3.19,-1.62 3.19,2.37 3.18,0.9 3.19,10.32 3.18,5.91 3.19,-6.22 3.19,-9.15 3.18,14.65 3.19,-8.39 3.18,-8.91 3.19,-5.33 3.19,-5.85 3.18,-6.13 3.19,-6.12 3.18,1.24 3.19,1.07 3.19,5.74 3.18,5.33 3.19,-8.87 3.18,-2.82 3.19,-0.38 3.19,-3.24 3.18,7.26 3.19,7.78 3.18,7.19 3.19,4.47 3.19,3.06 3.18,1.62 3.19,1.13 3.18,10.39 3.19,7.84 3.19,1.79 3.18,-6.39 3.19,-12.63 3.18,8.57 3.19,0.55 3.19,0.37 3.18,7.44 3.19,0.06 3.18,17.38 3.19,12.48 3.19,2.62 3.18,-10.7 3.19,-19.3 3.18,9.36 3.19,6.53 3.19,-4.09 3.18,-10.04 3.19,-11.01 3.19,11.31 3.18,10.12 3.19,6.71 3.18,4.3 3.19,37.01 3.19,39.53 3.18,-15.9 3.19,28.11 3.18,7.46 3.19,-16.41 3.19,36.37 3.18,21.01 3.19,-12.52 3.18,7.33 3.19,-15.41 3.19,-29.65 3.18,31.06 3.19,26.97 3.18,11.35"
           style="fill:none;stroke:#000000;stroke-width:0.75;stroke-linecap:round;stroke-linejoin:round;stroke-miterlimit:10;stroke-dasharray:none;stroke-opacity:1"
           id="path22"
           inkscape:connector-curvature="0" /></g></g><g
       id="g24"><path
   d="m 93.07,73.44 h 796.5"
   style="fill:none;stroke:#000000;stroke-width:0.75;stroke-linecap:round;stroke-linejoin:round;stroke-miterlimit:10;stroke-dasharray:none;stroke-opacity:1"
   id="path26"
   inkscape:connector-curvature="0" /><path
   d="m 93.07,73.44 v -7.2"
   style="fill:none;stroke:#000000;stroke-width:0.75;stroke-linecap:round;stroke-linejoin:round;stroke-miterlimit:10;stroke-dasharray:none;stroke-opacity:1"
   id="path28"
   inkscape:connector-curvature="0" /><path
   d="m 252.37,73.44 v -7.2"
   style="fill:none;stroke:#000000;stroke-width:0.75;stroke-linecap:round;stroke-linejoin:round;stroke-miterlimit:10;stroke-dasharray:none;stroke-opacity:1"
   id="path30"
   inkscape:connector-curvature="0" /><path
   d="m 411.67,73.44 v -7.2"
   style="fill:none;stroke:#000000;stroke-width:0.75;stroke-linecap:round;stroke-linejoin:round;stroke-miterlimit:10;stroke-dasharray:none;stroke-opacity:1"
   id="path32"
   inkscape:connector-curvature="0" /><path
   d="m 570.97,73.44 v -7.2"
   style="fill:none;stroke:#000000;stroke-width:0.75;stroke-linecap:round;stroke-linejoin:round;stroke-miterlimit:10;stroke-dasharray:none;stroke-opacity:1"
   id="path34"
   inkscape:connector-curvature="0" /><path
   d="m 730.27,73.44 v -7.2"
   style="fill:none;stroke:#000000;stroke-width:0.75;stroke-linecap:round;stroke-linejoin:round;stroke-miterlimit:10;stroke-dasharray:none;stroke-opacity:1"
   id="path36"
   inkscape:connector-curvature="0" /><path
   d="m 889.57,73.44 v -7.2"
   style="fill:none;stroke:#000000;stroke-width:0.75;stroke-linecap:round;stroke-linejoin:round;stroke-miterlimit:10;stroke-dasharray:none;stroke-opacity:1"
   id="path38"
   inkscape:connector-curvature="0" /><text
   transform="matrix(1,0,0,-1,88.06,47.52)"
   style="font-variant:normal;font-weight:normal;font-size:18px;font-family:Helvetica;-inkscape-font-specification:Helvetica;writing-mode:lr-tb;fill:#000000;fill-opacity:1;fill-rule:nonzero;stroke:none"
   id="text42"><tspan
     x="0"
     y="0"
     id="tspan40">0</tspan></text>

<text
   transform="matrix(1,0,0,-1,242.36,47.52)"
   style="font-variant:normal;font-weight:normal;font-size:18px;font-family:Helvetica;-inkscape-font-specification:Helvetica;writing-mode:lr-tb;fill:#000000;fill-opacity:1;fill-rule:nonzero;stroke:none"
   id="text46"><tspan
     x="0 10.008"
     y="0"
     sodipodi:role="line"
     id="tspan44">50</tspan></text>

<text
   transform="matrix(1,0,0,-1,396.66,47.52)"
   style="font-variant:normal;font-weight:normal;font-size:18px;font-family:Helvetica;-inkscape-font-specification:Helvetica;writing-mode:lr-tb;fill:#000000;fill-opacity:1;fill-rule:nonzero;stroke:none"
   id="text50"><tspan
     x="0 10.008 20.016001"
     y="0"
     sodipodi:role="line"
     id="tspan48">100</tspan></text>

<text
   transform="matrix(1,0,0,-1,555.96,47.52)"
   style="font-variant:normal;font-weight:normal;font-size:18px;font-family:Helvetica;-inkscape-font-specification:Helvetica;writing-mode:lr-tb;fill:#000000;fill-opacity:1;fill-rule:nonzero;stroke:none"
   id="text54"><tspan
     x="0 10.008 20.016001"
     y="0"
     sodipodi:role="line"
     id="tspan52">150</tspan></text>

<text
   transform="matrix(1,0,0,-1,715.26,47.52)"
   style="font-variant:normal;font-weight:normal;font-size:18px;font-family:Helvetica;-inkscape-font-specification:Helvetica;writing-mode:lr-tb;fill:#000000;fill-opacity:1;fill-rule:nonzero;stroke:none"
   id="text58"><tspan
     x="0 10.008 20.016001"
     y="0"
     sodipodi:role="line"
     id="tspan56">200</tspan></text>

<text
   transform="matrix(1,0,0,-1,874.56,47.52)"
   style="font-variant:normal;font-weight:normal;font-size:18px;font-family:Helvetica;-inkscape-font-specification:Helvetica;writing-mode:lr-tb;fill:#000000;fill-opacity:1;fill-rule:nonzero;stroke:none"
   id="text62"><tspan
     x="0 10.008 20.016001"
     y="0"
     sodipodi:role="line"
     id="tspan60">250</tspan></text>

<path
   d="m 59.04,87.2 v 344"
   style="fill:none;stroke:#000000;stroke-width:0.75;stroke-linecap:round;stroke-linejoin:round;stroke-miterlimit:10;stroke-dasharray:none;stroke-opacity:1"
   id="path64"
   inkscape:connector-curvature="0" /><path
   d="m 59.04,87.2 h -7.2"
   style="fill:none;stroke:#000000;stroke-width:0.75;stroke-linecap:round;stroke-linejoin:round;stroke-miterlimit:10;stroke-dasharray:none;stroke-opacity:1"
   id="path66"
   inkscape:connector-curvature="0" /><path
   d="m 59.04,156 h -7.2"
   style="fill:none;stroke:#000000;stroke-width:0.75;stroke-linecap:round;stroke-linejoin:round;stroke-miterlimit:10;stroke-dasharray:none;stroke-opacity:1"
   id="path68"
   inkscape:connector-curvature="0" /><path
   d="m 59.04,224.8 h -7.2"
   style="fill:none;stroke:#000000;stroke-width:0.75;stroke-linecap:round;stroke-linejoin:round;stroke-miterlimit:10;stroke-dasharray:none;stroke-opacity:1"
   id="path70"
   inkscape:connector-curvature="0" /><path
   d="m 59.04,293.6 h -7.2"
   style="fill:none;stroke:#000000;stroke-width:0.75;stroke-linecap:round;stroke-linejoin:round;stroke-miterlimit:10;stroke-dasharray:none;stroke-opacity:1"
   id="path72"
   inkscape:connector-curvature="0" /><path
   d="m 59.04,362.4 h -7.2"
   style="fill:none;stroke:#000000;stroke-width:0.75;stroke-linecap:round;stroke-linejoin:round;stroke-miterlimit:10;stroke-dasharray:none;stroke-opacity:1"
   id="path74"
   inkscape:connector-curvature="0" /><path
   d="m 59.04,431.2 h -7.2"
   style="fill:none;stroke:#000000;stroke-width:0.75;stroke-linecap:round;stroke-linejoin:round;stroke-miterlimit:10;stroke-dasharray:none;stroke-opacity:1"
   id="path76"
   inkscape:connector-curvature="0" /><text
   transform="matrix(0,1,1,0,41.76,74.69)"
   style="font-variant:normal;font-weight:normal;font-size:18px;font-family:Helvetica;-inkscape-font-specification:Helvetica;writing-mode:lr-tb;fill:#000000;fill-opacity:1;fill-rule:nonzero;stroke:none"
   id="text80"><tspan
     x="0 10.008 15.012"
     y="0"
     sodipodi:role="line"
     id="tspan78">0.0</tspan></text>

<text
   transform="matrix(0,1,1,0,41.76,143.49)"
   style="font-variant:normal;font-weight:normal;font-size:18px;font-family:Helvetica;-inkscape-font-specification:Helvetica;writing-mode:lr-tb;fill:#000000;fill-opacity:1;fill-rule:nonzero;stroke:none"
   id="text84"><tspan
     x="0 10.008 15.012"
     y="0"
     sodipodi:role="line"
     id="tspan82">0.2</tspan></text>

<text
   transform="matrix(0,1,1,0,41.76,212.29)"
   style="font-variant:normal;font-weight:normal;font-size:18px;font-family:Helvetica;-inkscape-font-specification:Helvetica;writing-mode:lr-tb;fill:#000000;fill-opacity:1;fill-rule:nonzero;stroke:none"
   id="text88"><tspan
     x="0 10.008 15.012"
     y="0"
     sodipodi:role="line"
     id="tspan86">0.4</tspan></text>

<text
   transform="matrix(0,1,1,0,41.76,281.09)"
   style="font-variant:normal;font-weight:normal;font-size:18px;font-family:Helvetica;-inkscape-font-specification:Helvetica;writing-mode:lr-tb;fill:#000000;fill-opacity:1;fill-rule:nonzero;stroke:none"
   id="text92"><tspan
     x="0 10.008 15.012"
     y="0"
     sodipodi:role="line"
     id="tspan90">0.6</tspan></text>

<text
   transform="matrix(0,1,1,0,41.76,349.89)"
   style="font-variant:normal;font-weight:normal;font-size:18px;font-family:Helvetica;-inkscape-font-specification:Helvetica;writing-mode:lr-tb;fill:#000000;fill-opacity:1;fill-rule:nonzero;stroke:none"
   id="text96"><tspan
     x="0 10.008 15.012"
     y="0"
     sodipodi:role="line"
     id="tspan94">0.8</tspan></text>

<text
   transform="matrix(0,1,1,0,41.76,418.69)"
   style="font-variant:normal;font-weight:normal;font-size:18px;font-family:Helvetica;-inkscape-font-specification:Helvetica;writing-mode:lr-tb;fill:#000000;fill-opacity:1;fill-rule:nonzero;stroke:none"
   id="text100"><tspan
     x="0 10.008 15.012"
     y="0"
     sodipodi:role="line"
     id="tspan98">1.0</tspan></text>

<path
   d="M 59.04,73.44 H 977.76 V 444.96 H 59.04 V 73.44"
   style="fill:none;stroke:#000000;stroke-width:0.75;stroke-linecap:round;stroke-linejoin:round;stroke-miterlimit:10;stroke-dasharray:none;stroke-opacity:1"
   id="path102"
   inkscape:connector-curvature="0" /></g><g
       id="g104"><text
   transform="matrix(1,0,0,-1,476.34,18.72)"
   style="font-variant:normal;font-weight:normal;font-size:18px;font-family:Helvetica;-inkscape-font-specification:Helvetica;writing-mode:lr-tb;fill:#000000;fill-opacity:1;fill-rule:nonzero;stroke:none"
   id="text108"><tspan
     x="0 10.998 16.812 26.82 41.813999 51.821999 56.826 69.821999 79.110001"
     y="0"
     sodipodi:role="line"
     id="tspan106">Frame No.</tspan></text>

<text
   transform="matrix(0,1,1,0,12.96,218.94)"
   style="font-variant:normal;font-weight:normal;font-size:18px;font-family:Helvetica;-inkscape-font-specification:Helvetica;writing-mode:lr-tb;fill:#000000;fill-opacity:1;fill-rule:nonzero;stroke:none"
   id="text112"><tspan
     x="0 10.998 25.992001 36.504002 45.504002 54.504002 64.512001 70.505997"
     y="0"
     sodipodi:role="line"
     id="tspan110">TM−score</tspan></text>

</g><rect
       style="opacity:1;fill:none;fill-opacity:1;fill-rule:nonzero;stroke:#ff0000;stroke-width:3;stroke-miterlimit:4;stroke-dasharray:none;stroke-dashoffset:0;stroke-opacity:1"
       id="rect919"
       width="110.592"
       height="46.080002"
       x="460.80002"
       y="-247.67999"
       transform="scale(1,-1)" /><rect
       style="opacity:1;fill:none;fill-opacity:1;fill-rule:nonzero;stroke:#ff0000;stroke-width:3;stroke-miterlimit:4;stroke-dasharray:none;stroke-dashoffset:0;stroke-opacity:1"
       id="rect930"
       width="73.728004"
       height="34.560005"
       x="193.53601"
       y="-155.51999"
       transform="scale(1,-1)" /><rect
       style="opacity:1;fill:none;fill-opacity:1;fill-rule:nonzero;stroke:#ff0000;stroke-width:3;stroke-miterlimit:4;stroke-dasharray:none;stroke-dashoffset:0;stroke-opacity:1"
       id="rect933"
       width="69.120003"
       height="33.408001"
       x="848.15002"
       y="-282.56799"
       transform="scale(1,-1)" /><rect
       style="opacity:1;fill:none;fill-opacity:1;fill-rule:nonzero;stroke:#ff0000;stroke-width:2.29506397;stroke-miterlimit:4;stroke-dasharray:none;stroke-dashoffset:0;stroke-opacity:1"
       id="rect951"
       width="60.132019"
       height="17.876104"
       x="759.05402"
       y="-214.42606"
       transform="scale(1,-1)" /><rect
       style="opacity:1;fill:none;fill-opacity:1;fill-rule:nonzero;stroke:#ff0000;stroke-width:3;stroke-miterlimit:4;stroke-dasharray:none;stroke-dashoffset:0;stroke-opacity:1"
       id="rect959"
       width="82.510017"
       height="18.687996"
       x="630.901"
       y="-190.748"
       transform="scale(1,-1)" /><rect
       style="opacity:1;fill:none;fill-opacity:1;fill-rule:nonzero;stroke:#ff0000;stroke-width:2.17984176;stroke-miterlimit:4;stroke-dasharray:none;stroke-dashoffset:0;stroke-opacity:1"
       id="rect974"
       width="50.963512"
       height="18.024187"
       x="718.71027"
       y="-247.13443"
       transform="scale(1,-1)" /><rect
       style="opacity:1;fill:none;fill-opacity:1;fill-rule:nonzero;stroke:#ff0000;stroke-width:3;stroke-miterlimit:4;stroke-dasharray:none;stroke-dashoffset:0;stroke-opacity:1"
       id="rect976"
       width="63.360004"
       height="25.344"
       x="412.836"
       y="-171.84001"
       transform="scale(1,-1)" /><rect
       style="opacity:1;fill:none;fill-opacity:1;fill-rule:nonzero;stroke:#0000ff;stroke-width:3.37634254;stroke-miterlimit:4;stroke-dasharray:3.37634269, 3.37634269;stroke-dashoffset:0;stroke-opacity:1"
       id="rect870"
       width="44.679169"
       height="97.100006"
       x="472.1308"
       y="-288.78"
       transform="scale(1,-1)" /></g></svg>