<?xml version="1.0" encoding="UTF-8" standalone="no"?>
<!-- Created with Inkscape (http://www.inkscape.org/) -->

<svg
   xmlns:dc="http://purl.org/dc/elements/1.1/"
   xmlns:cc="http://creativecommons.org/ns#"
   xmlns:rdf="http://www.w3.org/1999/02/22-rdf-syntax-ns#"
   xmlns:svg="http://www.w3.org/2000/svg"
   xmlns="http://www.w3.org/2000/svg"
   xmlns:sodipodi="http://sodipodi.sourceforge.net/DTD/sodipodi-0.dtd"
   xmlns:inkscape="http://www.inkscape.org/namespaces/inkscape"
   version="1.1"
   id="svg2"
   xml:space="preserve"
   width="1344"
   height="672"
   viewBox="0 0 1344 672"
   sodipodi:docname="2YCC-50b05t05k-ann-pdbsLocal.svg"
   inkscape:version="0.92.3 (2405546, 2018-03-11)"><metadata
     id="metadata8"><rdf:RDF><cc:Work
         rdf:about=""><dc:format>image/svg+xml</dc:format><dc:type
           rdf:resource="http://purl.org/dc/dcmitype/StillImage" /><dc:title></dc:title></cc:Work></rdf:RDF></metadata><defs
     id="defs6"><clipPath
       clipPathUnits="userSpaceOnUse"
       id="clipPath20"><path
         d="M 59.04,73.44 H 977.76 V 444.96 H 59.04 Z"
         id="path18"
         inkscape:connector-curvature="0" /></clipPath></defs><sodipodi:namedview
     pagecolor="#ffffff"
     bordercolor="#666666"
     borderopacity="1"
     objecttolerance="10"
     gridtolerance="10"
     guidetolerance="10"
     inkscape:pageopacity="0"
     inkscape:pageshadow="2"
     inkscape:window-width="1366"
     inkscape:window-height="732"
     id="namedview4"
     showgrid="false"
     inkscape:zoom="0.45246416"
     inkscape:cx="788.26362"
     inkscape:cy="332.79588"
     inkscape:window-x="-2"
     inkscape:window-y="-2"
     inkscape:window-maximized="1"
     inkscape:current-layer="g10" /><g
     id="g10"
     inkscape:groupmode="layer"
     inkscape:label="2YCC-50b05t05k-pdbsLocal"
     transform="matrix(1.3333333,0,0,-1.3333333,0,672)"><g
       id="g12" /><g
       id="g14"><g
         id="g16"
         clip-path="url(#clipPath20)"><path
           d="m 93.07,144.96 11.49,-7.5 11.5,-3.89 11.49,3.03 11.5,-5.23 11.49,2.85 11.5,-1.58 11.5,-3.99 11.49,2.2 11.5,0.45 11.49,-0.72 11.5,7.57 11.49,0.72 11.5,1.24 11.49,-7.19 11.5,0.79 11.49,-4.27 11.5,0.86 11.5,6.4 11.49,4.23 11.5,-2.06 11.49,7.39 11.5,-10.62 11.49,0.89 11.5,-1.86 11.49,-2.27 11.5,-0.82 11.5,1.1 11.49,3.23 11.5,9.25 11.49,-8.36 11.5,-1.99 11.49,-1.86 11.5,0.79 11.49,3.96 11.5,-2.72 11.49,-0.17 11.5,-3.68 11.5,0.1 11.49,2.62 11.5,3.2 11.49,3.99 11.5,5.29 11.49,6.64 11.5,4.89 11.49,1.13 11.5,-2.34 11.49,0.49 11.5,-4.99 11.5,7.12 11.49,9.8 11.5,22.19 11.49,16.92 11.5,18.37 11.49,-7.22 11.5,-8.77 11.49,-11.18 11.5,-18.41 11.5,-13.31 11.49,12.76 11.5,-8.84 11.49,21.06 11.5,4.95 11.49,-13.86 11.5,-2 11.49,21.05 11.5,-4.09 11.49,3.68 11.5,21.85 11.5,2.51 11.49,-12.7 11.5,-0.27 11.49,37.49 11.5,2.51 11.49,177.44"
           style="fill:none;stroke:#000000;stroke-width:0.75;stroke-linecap:round;stroke-linejoin:round;stroke-miterlimit:10;stroke-dasharray:none;stroke-opacity:1"
           id="path22"
           inkscape:connector-curvature="0" /></g></g><g
       id="g24"><path
         d="M 93.07,73.44 H 782.8"
         style="fill:none;stroke:#000000;stroke-width:0.75;stroke-linecap:round;stroke-linejoin:round;stroke-miterlimit:10;stroke-dasharray:none;stroke-opacity:1"
         id="path26"
         inkscape:connector-curvature="0" /><path
         d="m 93.07,73.44 v -7.2"
         style="fill:none;stroke:#000000;stroke-width:0.75;stroke-linecap:round;stroke-linejoin:round;stroke-miterlimit:10;stroke-dasharray:none;stroke-opacity:1"
         id="path28"
         inkscape:connector-curvature="0" /><path
         d="m 322.98,73.44 v -7.2"
         style="fill:none;stroke:#000000;stroke-width:0.75;stroke-linecap:round;stroke-linejoin:round;stroke-miterlimit:10;stroke-dasharray:none;stroke-opacity:1"
         id="path30"
         inkscape:connector-curvature="0" /><path
         d="m 552.89,73.44 v -7.2"
         style="fill:none;stroke:#000000;stroke-width:0.75;stroke-linecap:round;stroke-linejoin:round;stroke-miterlimit:10;stroke-dasharray:none;stroke-opacity:1"
         id="path32"
         inkscape:connector-curvature="0" /><path
         d="m 782.8,73.44 v -7.2"
         style="fill:none;stroke:#000000;stroke-width:0.75;stroke-linecap:round;stroke-linejoin:round;stroke-miterlimit:10;stroke-dasharray:none;stroke-opacity:1"
         id="path34"
         inkscape:connector-curvature="0" /><text
         transform="matrix(1,0,0,-1,88.06,47.52)"
         style="font-variant:normal;font-weight:normal;font-size:18px;font-family:Helvetica;-inkscape-font-specification:Helvetica;writing-mode:lr-tb;fill:#000000;fill-opacity:1;fill-rule:nonzero;stroke:none"
         id="text38"><tspan
           x="0"
           y="0"
           id="tspan36">0</tspan></text>
<text
         transform="matrix(1,0,0,-1,312.97,47.52)"
         style="font-variant:normal;font-weight:normal;font-size:18px;font-family:Helvetica;-inkscape-font-specification:Helvetica;writing-mode:lr-tb;fill:#000000;fill-opacity:1;fill-rule:nonzero;stroke:none"
         id="text42"><tspan
           x="0 10.008"
           y="0"
           sodipodi:role="line"
           id="tspan40">20</tspan></text>
<text
         transform="matrix(1,0,0,-1,542.88,47.52)"
         style="font-variant:normal;font-weight:normal;font-size:18px;font-family:Helvetica;-inkscape-font-specification:Helvetica;writing-mode:lr-tb;fill:#000000;fill-opacity:1;fill-rule:nonzero;stroke:none"
         id="text46"><tspan
           x="0 10.008"
           y="0"
           sodipodi:role="line"
           id="tspan44">40</tspan></text>
<text
         transform="matrix(1,0,0,-1,772.79,47.52)"
         style="font-variant:normal;font-weight:normal;font-size:18px;font-family:Helvetica;-inkscape-font-specification:Helvetica;writing-mode:lr-tb;fill:#000000;fill-opacity:1;fill-rule:nonzero;stroke:none"
         id="text50"><tspan
           x="0 10.008"
           y="0"
           sodipodi:role="line"
           id="tspan48">60</tspan></text>
<path
         d="m 59.04,87.2 v 344"
         style="fill:none;stroke:#000000;stroke-width:0.75;stroke-linecap:round;stroke-linejoin:round;stroke-miterlimit:10;stroke-dasharray:none;stroke-opacity:1"
         id="path52"
         inkscape:connector-curvature="0" /><path
         d="m 59.04,87.2 h -7.2"
         style="fill:none;stroke:#000000;stroke-width:0.75;stroke-linecap:round;stroke-linejoin:round;stroke-miterlimit:10;stroke-dasharray:none;stroke-opacity:1"
         id="path54"
         inkscape:connector-curvature="0" /><path
         d="m 59.04,156 h -7.2"
         style="fill:none;stroke:#000000;stroke-width:0.75;stroke-linecap:round;stroke-linejoin:round;stroke-miterlimit:10;stroke-dasharray:none;stroke-opacity:1"
         id="path56"
         inkscape:connector-curvature="0" /><path
         d="m 59.04,224.8 h -7.2"
         style="fill:none;stroke:#000000;stroke-width:0.75;stroke-linecap:round;stroke-linejoin:round;stroke-miterlimit:10;stroke-dasharray:none;stroke-opacity:1"
         id="path58"
         inkscape:connector-curvature="0" /><path
         d="m 59.04,293.6 h -7.2"
         style="fill:none;stroke:#000000;stroke-width:0.75;stroke-linecap:round;stroke-linejoin:round;stroke-miterlimit:10;stroke-dasharray:none;stroke-opacity:1"
         id="path60"
         inkscape:connector-curvature="0" /><path
         d="m 59.04,362.4 h -7.2"
         style="fill:none;stroke:#000000;stroke-width:0.75;stroke-linecap:round;stroke-linejoin:round;stroke-miterlimit:10;stroke-dasharray:none;stroke-opacity:1"
         id="path62"
         inkscape:connector-curvature="0" /><path
         d="m 59.04,431.2 h -7.2"
         style="fill:none;stroke:#000000;stroke-width:0.75;stroke-linecap:round;stroke-linejoin:round;stroke-miterlimit:10;stroke-dasharray:none;stroke-opacity:1"
         id="path64"
         inkscape:connector-curvature="0" /><text
         transform="matrix(0,1,1,0,41.76,74.69)"
         style="font-variant:normal;font-weight:normal;font-size:18px;font-family:Helvetica;-inkscape-font-specification:Helvetica;writing-mode:lr-tb;fill:#000000;fill-opacity:1;fill-rule:nonzero;stroke:none"
         id="text68"><tspan
           x="0 10.008 15.012"
           y="0"
           sodipodi:role="line"
           id="tspan66">0.0</tspan></text>
<text
         transform="matrix(0,1,1,0,41.76,143.49)"
         style="font-variant:normal;font-weight:normal;font-size:18px;font-family:Helvetica;-inkscape-font-specification:Helvetica;writing-mode:lr-tb;fill:#000000;fill-opacity:1;fill-rule:nonzero;stroke:none"
         id="text72"><tspan
           x="0 10.008 15.012"
           y="0"
           sodipodi:role="line"
           id="tspan70">0.2</tspan></text>
<text
         transform="matrix(0,1,1,0,41.76,212.29)"
         style="font-variant:normal;font-weight:normal;font-size:18px;font-family:Helvetica;-inkscape-font-specification:Helvetica;writing-mode:lr-tb;fill:#000000;fill-opacity:1;fill-rule:nonzero;stroke:none"
         id="text76"><tspan
           x="0 10.008 15.012"
           y="0"
           sodipodi:role="line"
           id="tspan74">0.4</tspan></text>
<text
         transform="matrix(0,1,1,0,41.76,281.09)"
         style="font-variant:normal;font-weight:normal;font-size:18px;font-family:Helvetica;-inkscape-font-specification:Helvetica;writing-mode:lr-tb;fill:#000000;fill-opacity:1;fill-rule:nonzero;stroke:none"
         id="text80"><tspan
           x="0 10.008 15.012"
           y="0"
           sodipodi:role="line"
           id="tspan78">0.6</tspan></text>
<text
         transform="matrix(0,1,1,0,41.76,349.89)"
         style="font-variant:normal;font-weight:normal;font-size:18px;font-family:Helvetica;-inkscape-font-specification:Helvetica;writing-mode:lr-tb;fill:#000000;fill-opacity:1;fill-rule:nonzero;stroke:none"
         id="text84"><tspan
           x="0 10.008 15.012"
           y="0"
           sodipodi:role="line"
           id="tspan82">0.8</tspan></text>
<text
         transform="matrix(0,1,1,0,41.76,418.69)"
         style="font-variant:normal;font-weight:normal;font-size:18px;font-family:Helvetica;-inkscape-font-specification:Helvetica;writing-mode:lr-tb;fill:#000000;fill-opacity:1;fill-rule:nonzero;stroke:none"
         id="text88"><tspan
           x="0 10.008 15.012"
           y="0"
           sodipodi:role="line"
           id="tspan86">1.0</tspan></text>
<path
         d="M 59.04,73.44 H 977.76 V 444.96 H 59.04 V 73.44"
         style="fill:none;stroke:#000000;stroke-width:0.75;stroke-linecap:round;stroke-linejoin:round;stroke-miterlimit:10;stroke-dasharray:none;stroke-opacity:1"
         id="path90"
         inkscape:connector-curvature="0" /></g><g
       id="g92"><text
         transform="matrix(1,0,0,-1,476.34,18.72)"
         style="font-variant:normal;font-weight:normal;font-size:18px;font-family:Helvetica;-inkscape-font-specification:Helvetica;writing-mode:lr-tb;fill:#000000;fill-opacity:1;fill-rule:nonzero;stroke:none"
         id="text96"><tspan
           x="0 10.998 16.812 26.82 41.813999 51.821999 56.826 69.821999 79.110001"
           y="0"
           sodipodi:role="line"
           id="tspan94">Frame No.</tspan></text>
<text
         transform="matrix(0,1,1,0,12.96,218.94)"
         style="font-variant:normal;font-weight:normal;font-size:18px;font-family:Helvetica;-inkscape-font-specification:Helvetica;writing-mode:lr-tb;fill:#000000;fill-opacity:1;fill-rule:nonzero;stroke:none"
         id="text100"><tspan
           x="0 10.998 25.992001 36.504002 45.504002 54.504002 64.512001 70.505997"
           y="0"
           sodipodi:role="line"
           id="tspan98">TM−score</tspan></text>
</g><rect
       style="opacity:1;fill:none;fill-opacity:1;fill-rule:nonzero;stroke:#0000ff;stroke-width:3.37634254;stroke-miterlimit:4;stroke-dasharray:3.37634269, 3.37634269;stroke-dashoffset:0;stroke-opacity:1"
       id="rect870"
       width="44.679169"
       height="97.100006"
       x="683.77631"
       y="-293.87332"
       transform="scale(1,-1)" /></g></svg>